<svg xmlns="http://www.w3.org/2000/svg" width="1120" height="860" viewBox="0 0 1120 860" role="img" aria-labelledby="title desc">
<title id="title">Best-trial total score distributions by paper rating</title>
<desc id="desc">Best-trial total score distributions by paper rating</desc>
<style>
.bg { fill: #fbfaf5; }
.panel { fill: #ffffff; stroke: #d8d4c8; stroke-width: 1; }
.axis { stroke: #706b60; stroke-width: 1; }
.grid { stroke: #ebe6d9; stroke-width: 1; }
.series { stroke-width: 2.5; }
.best { stroke: #b2382f; stroke-width: 2; stroke-dasharray: 6 4; }
.mean { stroke: #7a6d2c; stroke-width: 2; stroke-dasharray: 4 3; }
.title { font: 700 22px sans-serif; fill: #1d2b24; }
.subtitle { font: 500 13px sans-serif; fill: #59564f; }
.paneltitle { font: 700 14px sans-serif; fill: #1f2f28; }
.label { font: 12px sans-serif; fill: #4e4a43; }
.small { font: 11px sans-serif; fill: #6a665f; }
.legend { font: 12px sans-serif; fill: #2f3b35; }
</style>
<rect class="bg" x="0" y="0" width="1120" height="860" />
<text class="title" x="60.00" y="34.00" text-anchor="start">Best-trial total score distributions by paper rating</text>
<text class="subtitle" x="60.00" y="54.00" text-anchor="start">For each stage, the best trial&#x27;s per-paper raw total score (score_sum) is split by human label. Better searches push Good papers to the right and Bad papers to the left.</text>
<rect x="900.00" y="24.00" width="14.00" height="10.00" fill="#2f7d5b" fill-opacity="0.780" rx="2" />
<text class="legend" x="922.00" y="34.00" text-anchor="start">Good</text>
<rect x="900.00" y="42.00" width="14.00" height="10.00" fill="#a07c2f" fill-opacity="0.780" rx="2" />
<text class="legend" x="922.00" y="52.00" text-anchor="start">Neutral</text>
<rect x="900.00" y="60.00" width="14.00" height="10.00" fill="#b64940" fill-opacity="0.780" rx="2" />
<text class="legend" x="922.00" y="70.00" text-anchor="start">Bad</text>
<rect class="panel" x="60" y="82" width="1000" height="220" rx="10" />
<line class="grid" x1="116.00" y1="266.00" x2="1040.00" y2="266.00" />
<text class="small" x="108.00" y="270.00" text-anchor="end">0</text>
<line class="grid" x1="116.00" y1="226.00" x2="1040.00" y2="226.00" />
<text class="small" x="108.00" y="230.00" text-anchor="end">5</text>
<line class="grid" x1="116.00" y1="186.00" x2="1040.00" y2="186.00" />
<text class="small" x="108.00" y="190.00" text-anchor="end">10</text>
<line class="grid" x1="116.00" y1="146.00" x2="1040.00" y2="146.00" />
<text class="small" x="108.00" y="150.00" text-anchor="end">15</text>
<line class="grid" x1="116.00" y1="106.00" x2="1040.00" y2="106.00" />
<text class="small" x="108.00" y="110.00" text-anchor="end">20</text>
<line class="axis" x1="31.08" y1="266.00" x2="31.08" y2="272.00" />
<text class="small" x="31.08" y="288.00" text-anchor="middle">5</text>
<line class="axis" x1="153.14" y1="266.00" x2="153.14" y2="272.00" />
<text class="small" x="153.14" y="288.00" text-anchor="middle">10</text>
<line class="axis" x1="275.19" y1="266.00" x2="275.19" y2="272.00" />
<text class="small" x="275.19" y="288.00" text-anchor="middle">15</text>
<line class="axis" x1="397.24" y1="266.00" x2="397.24" y2="272.00" />
<text class="small" x="397.24" y="288.00" text-anchor="middle">20</text>
<line class="axis" x1="519.30" y1="266.00" x2="519.30" y2="272.00" />
<text class="small" x="519.30" y="288.00" text-anchor="middle">25</text>
<line class="axis" x1="641.35" y1="266.00" x2="641.35" y2="272.00" />
<text class="small" x="641.35" y="288.00" text-anchor="middle">30</text>
<line class="axis" x1="763.40" y1="266.00" x2="763.40" y2="272.00" />
<text class="small" x="763.40" y="288.00" text-anchor="middle">35</text>
<line class="axis" x1="885.46" y1="266.00" x2="885.46" y2="272.00" />
<text class="small" x="885.46" y="288.00" text-anchor="middle">40</text>
<line class="axis" x1="1007.51" y1="266.00" x2="1007.51" y2="272.00" />
<text class="small" x="1007.51" y="288.00" text-anchor="middle">45</text>
<line class="axis" x1="1129.56" y1="266.00" x2="1129.56" y2="272.00" />
<text class="small" x="1129.56" y="288.00" text-anchor="middle">50</text>
<line class="axis" x1="116.00" y1="106.00" x2="116.00" y2="266.00" />
<line class="axis" x1="116.00" y1="266.00" x2="1040.00" y2="266.00" />
<rect x="285.85" y="258.00" width="11.96" height="8.00" fill="#2f7d5b" fill-opacity="0.680" rx="2" />
<rect x="340.21" y="250.00" width="11.96" height="16.00" fill="#2f7d5b" fill-opacity="0.680" rx="2" />
<rect x="394.56" y="218.00" width="11.96" height="48.00" fill="#2f7d5b" fill-opacity="0.680" rx="2" />
<rect x="448.91" y="194.00" width="11.96" height="72.00" fill="#2f7d5b" fill-opacity="0.680" rx="2" />
<rect x="503.26" y="106.00" width="11.96" height="160.00" fill="#2f7d5b" fill-opacity="0.680" rx="2" />
<rect x="557.62" y="218.00" width="11.96" height="48.00" fill="#2f7d5b" fill-opacity="0.680" rx="2" />
<rect x="180.14" y="258.00" width="11.96" height="8.00" fill="#a07c2f" fill-opacity="0.680" rx="2" />
<rect x="234.49" y="250.00" width="11.96" height="16.00" fill="#a07c2f" fill-opacity="0.680" rx="2" />
<rect x="288.84" y="258.00" width="11.96" height="8.00" fill="#a07c2f" fill-opacity="0.680" rx="2" />
<rect x="343.20" y="234.00" width="11.96" height="32.00" fill="#a07c2f" fill-opacity="0.680" rx="2" />
<rect x="397.55" y="210.00" width="11.96" height="56.00" fill="#a07c2f" fill-opacity="0.680" rx="2" />
<rect x="451.90" y="218.00" width="11.96" height="48.00" fill="#a07c2f" fill-opacity="0.680" rx="2" />
<rect x="506.25" y="194.00" width="11.96" height="72.00" fill="#a07c2f" fill-opacity="0.680" rx="2" />
<rect x="560.61" y="258.00" width="11.96" height="8.00" fill="#a07c2f" fill-opacity="0.680" rx="2" />
<rect x="128.77" y="258.00" width="11.96" height="8.00" fill="#b64940" fill-opacity="0.680" rx="2" />
<rect x="237.48" y="258.00" width="11.96" height="8.00" fill="#b64940" fill-opacity="0.680" rx="2" />
<rect x="291.83" y="258.00" width="11.96" height="8.00" fill="#b64940" fill-opacity="0.680" rx="2" />
<rect x="346.18" y="258.00" width="11.96" height="8.00" fill="#b64940" fill-opacity="0.680" rx="2" />
<rect x="400.54" y="210.00" width="11.96" height="56.00" fill="#b64940" fill-opacity="0.680" rx="2" />
<rect x="454.89" y="234.00" width="11.96" height="32.00" fill="#b64940" fill-opacity="0.680" rx="2" />
<rect x="509.24" y="162.00" width="11.96" height="104.00" fill="#b64940" fill-opacity="0.680" rx="2" />
<rect x="563.60" y="258.00" width="11.96" height="8.00" fill="#b64940" fill-opacity="0.680" rx="2" />
<line x1="494.66" y1="106.00" x2="494.66" y2="266.00" stroke="#2f7d5b" stroke-width="2.00" stroke-dasharray="6 4" />
<line x1="433.73" y1="106.00" x2="433.73" y2="266.00" stroke="#a07c2f" stroke-width="2.00" stroke-dasharray="6 4" />
<line x1="454.65" y1="106.00" x2="454.65" y2="266.00" stroke="#b64940" stroke-width="2.00" stroke-dasharray="6 4" />
<text class="paneltitle" x="116.00" y="98.00" text-anchor="start">Stage 1 dense</text>
<text class="small" x="1040.00" y="98.00" text-anchor="end">Good 44  Neutral 31  Bad 29</text>
<text class="small" x="116.00" y="120.00" text-anchor="start">Good mean 24.0  Neutral mean 21.5  Bad mean 22.4</text>
<rect class="panel" x="60" y="326" width="1000" height="220" rx="10" />
<line class="grid" x1="116.00" y1="510.00" x2="1040.00" y2="510.00" />
<text class="small" x="108.00" y="514.00" text-anchor="end">0</text>
<line class="grid" x1="116.00" y1="462.94" x2="1040.00" y2="462.94" />
<text class="small" x="108.00" y="466.94" text-anchor="end">5</text>
<line class="grid" x1="116.00" y1="415.88" x2="1040.00" y2="415.88" />
<text class="small" x="108.00" y="419.88" text-anchor="end">10</text>
<line class="grid" x1="116.00" y1="368.82" x2="1040.00" y2="368.82" />
<text class="small" x="108.00" y="372.82" text-anchor="end">15</text>
<line class="grid" x1="116.00" y1="321.76" x2="1040.00" y2="321.76" />
<text class="small" x="108.00" y="325.76" text-anchor="end">20</text>
<line class="axis" x1="31.08" y1="510.00" x2="31.08" y2="516.00" />
<text class="small" x="31.08" y="532.00" text-anchor="middle">5</text>
<line class="axis" x1="153.14" y1="510.00" x2="153.14" y2="516.00" />
<text class="small" x="153.14" y="532.00" text-anchor="middle">10</text>
<line class="axis" x1="275.19" y1="510.00" x2="275.19" y2="516.00" />
<text class="small" x="275.19" y="532.00" text-anchor="middle">15</text>
<line class="axis" x1="397.24" y1="510.00" x2="397.24" y2="516.00" />
<text class="small" x="397.24" y="532.00" text-anchor="middle">20</text>
<line class="axis" x1="519.30" y1="510.00" x2="519.30" y2="516.00" />
<text class="small" x="519.30" y="532.00" text-anchor="middle">25</text>
<line class="axis" x1="641.35" y1="510.00" x2="641.35" y2="516.00" />
<text class="small" x="641.35" y="532.00" text-anchor="middle">30</text>
<line class="axis" x1="763.40" y1="510.00" x2="763.40" y2="516.00" />
<text class="small" x="763.40" y="532.00" text-anchor="middle">35</text>
<line class="axis" x1="885.46" y1="510.00" x2="885.46" y2="516.00" />
<text class="small" x="885.46" y="532.00" text-anchor="middle">40</text>
<line class="axis" x1="1007.51" y1="510.00" x2="1007.51" y2="516.00" />
<text class="small" x="1007.51" y="532.00" text-anchor="middle">45</text>
<line class="axis" x1="1129.56" y1="510.00" x2="1129.56" y2="516.00" />
<text class="small" x="1129.56" y="532.00" text-anchor="middle">50</text>
<line class="axis" x1="116.00" y1="350.00" x2="116.00" y2="510.00" />
<line class="axis" x1="116.00" y1="510.00" x2="1040.00" y2="510.00" />
<rect x="285.85" y="500.59" width="11.96" height="9.41" fill="#2f7d5b" fill-opacity="0.680" rx="2" />
<rect x="340.21" y="500.59" width="11.96" height="9.41" fill="#2f7d5b" fill-opacity="0.680" rx="2" />
<rect x="394.56" y="462.94" width="11.96" height="47.06" fill="#2f7d5b" fill-opacity="0.680" rx="2" />
<rect x="448.91" y="415.88" width="11.96" height="94.12" fill="#2f7d5b" fill-opacity="0.680" rx="2" />
<rect x="503.26" y="350.00" width="11.96" height="160.00" fill="#2f7d5b" fill-opacity="0.680" rx="2" />
<rect x="557.62" y="415.88" width="11.96" height="94.12" fill="#2f7d5b" fill-opacity="0.680" rx="2" />
<rect x="180.14" y="500.59" width="11.96" height="9.41" fill="#a07c2f" fill-opacity="0.680" rx="2" />
<rect x="234.49" y="500.59" width="11.96" height="9.41" fill="#a07c2f" fill-opacity="0.680" rx="2" />
<rect x="288.84" y="491.18" width="11.96" height="18.82" fill="#a07c2f" fill-opacity="0.680" rx="2" />
<rect x="343.20" y="472.35" width="11.96" height="37.65" fill="#a07c2f" fill-opacity="0.680" rx="2" />
<rect x="397.55" y="453.53" width="11.96" height="56.47" fill="#a07c2f" fill-opacity="0.680" rx="2" />
<rect x="451.90" y="444.12" width="11.96" height="65.88" fill="#a07c2f" fill-opacity="0.680" rx="2" />
<rect x="506.25" y="425.29" width="11.96" height="84.71" fill="#a07c2f" fill-opacity="0.680" rx="2" />
<rect x="560.61" y="500.59" width="11.96" height="9.41" fill="#a07c2f" fill-opacity="0.680" rx="2" />
<rect x="128.77" y="500.59" width="11.96" height="9.41" fill="#b64940" fill-opacity="0.680" rx="2" />
<rect x="237.48" y="500.59" width="11.96" height="9.41" fill="#b64940" fill-opacity="0.680" rx="2" />
<rect x="291.83" y="500.59" width="11.96" height="9.41" fill="#b64940" fill-opacity="0.680" rx="2" />
<rect x="346.18" y="500.59" width="11.96" height="9.41" fill="#b64940" fill-opacity="0.680" rx="2" />
<rect x="400.54" y="444.12" width="11.96" height="65.88" fill="#b64940" fill-opacity="0.680" rx="2" />
<rect x="454.89" y="472.35" width="11.96" height="37.65" fill="#b64940" fill-opacity="0.680" rx="2" />
<rect x="509.24" y="387.65" width="11.96" height="122.35" fill="#b64940" fill-opacity="0.680" rx="2" />
<rect x="563.60" y="500.59" width="11.96" height="9.41" fill="#b64940" fill-opacity="0.680" rx="2" />
<line x1="503.72" y1="350.00" x2="503.72" y2="510.00" stroke="#2f7d5b" stroke-width="2.00" stroke-dasharray="6 4" />
<line x1="443.07" y1="350.00" x2="443.07" y2="510.00" stroke="#a07c2f" stroke-width="2.00" stroke-dasharray="6 4" />
<line x1="455.86" y1="350.00" x2="455.86" y2="510.00" stroke="#b64940" stroke-width="2.00" stroke-dasharray="6 4" />
<text class="paneltitle" x="116.00" y="342.00" text-anchor="start">Stage 2 refine</text>
<text class="small" x="1040.00" y="342.00" text-anchor="end">Good 44  Neutral 31  Bad 29</text>
<text class="small" x="116.00" y="364.00" text-anchor="start">Good mean 24.4  Neutral mean 21.9  Bad mean 22.4</text>
<rect class="panel" x="60" y="570" width="1000" height="220" rx="10" />
<line class="grid" x1="116.00" y1="754.00" x2="1040.00" y2="754.00" />
<text class="small" x="108.00" y="758.00" text-anchor="end">0</text>
<line class="grid" x1="116.00" y1="708.29" x2="1040.00" y2="708.29" />
<text class="small" x="108.00" y="712.29" text-anchor="end">2</text>
<line class="grid" x1="116.00" y1="662.57" x2="1040.00" y2="662.57" />
<text class="small" x="108.00" y="666.57" text-anchor="end">4</text>
<line class="grid" x1="116.00" y1="616.86" x2="1040.00" y2="616.86" />
<text class="small" x="108.00" y="620.86" text-anchor="end">6</text>
<line class="grid" x1="116.00" y1="571.14" x2="1040.00" y2="571.14" />
<text class="small" x="108.00" y="575.14" text-anchor="end">8</text>
<line class="axis" x1="31.08" y1="754.00" x2="31.08" y2="760.00" />
<text class="small" x="31.08" y="776.00" text-anchor="middle">5</text>
<line class="axis" x1="153.14" y1="754.00" x2="153.14" y2="760.00" />
<text class="small" x="153.14" y="776.00" text-anchor="middle">10</text>
<line class="axis" x1="275.19" y1="754.00" x2="275.19" y2="760.00" />
<text class="small" x="275.19" y="776.00" text-anchor="middle">15</text>
<line class="axis" x1="397.24" y1="754.00" x2="397.24" y2="760.00" />
<text class="small" x="397.24" y="776.00" text-anchor="middle">20</text>
<line class="axis" x1="519.30" y1="754.00" x2="519.30" y2="760.00" />
<text class="small" x="519.30" y="776.00" text-anchor="middle">25</text>
<line class="axis" x1="641.35" y1="754.00" x2="641.35" y2="760.00" />
<text class="small" x="641.35" y="776.00" text-anchor="middle">30</text>
<line class="axis" x1="763.40" y1="754.00" x2="763.40" y2="760.00" />
<text class="small" x="763.40" y="776.00" text-anchor="middle">35</text>
<line class="axis" x1="885.46" y1="754.00" x2="885.46" y2="760.00" />
<text class="small" x="885.46" y="776.00" text-anchor="middle">40</text>
<line class="axis" x1="1007.51" y1="754.00" x2="1007.51" y2="760.00" />
<text class="small" x="1007.51" y="776.00" text-anchor="middle">45</text>
<line class="axis" x1="1129.56" y1="754.00" x2="1129.56" y2="760.00" />
<text class="small" x="1129.56" y="776.00" text-anchor="middle">50</text>
<line class="axis" x1="116.00" y1="594.00" x2="116.00" y2="754.00" />
<line class="axis" x1="116.00" y1="754.00" x2="1040.00" y2="754.00" />
<rect x="285.85" y="708.29" width="11.96" height="45.71" fill="#2f7d5b" fill-opacity="0.680" rx="2" />
<rect x="394.56" y="731.14" width="11.96" height="22.86" fill="#2f7d5b" fill-opacity="0.680" rx="2" />
<rect x="503.26" y="731.14" width="11.96" height="22.86" fill="#2f7d5b" fill-opacity="0.680" rx="2" />
<rect x="557.62" y="685.43" width="11.96" height="68.57" fill="#2f7d5b" fill-opacity="0.680" rx="2" />
<rect x="611.97" y="662.57" width="11.96" height="91.43" fill="#2f7d5b" fill-opacity="0.680" rx="2" />
<rect x="666.32" y="662.57" width="11.96" height="91.43" fill="#2f7d5b" fill-opacity="0.680" rx="2" />
<rect x="720.68" y="708.29" width="11.96" height="45.71" fill="#2f7d5b" fill-opacity="0.680" rx="2" />
<rect x="775.03" y="639.71" width="11.96" height="114.29" fill="#2f7d5b" fill-opacity="0.680" rx="2" />
<rect x="829.38" y="594.00" width="11.96" height="160.00" fill="#2f7d5b" fill-opacity="0.680" rx="2" />
<rect x="883.74" y="594.00" width="11.96" height="160.00" fill="#2f7d5b" fill-opacity="0.680" rx="2" />
<rect x="938.09" y="639.71" width="11.96" height="114.29" fill="#2f7d5b" fill-opacity="0.680" rx="2" />
<rect x="992.44" y="685.43" width="11.96" height="68.57" fill="#2f7d5b" fill-opacity="0.680" rx="2" />
<rect x="234.49" y="731.14" width="11.96" height="22.86" fill="#a07c2f" fill-opacity="0.680" rx="2" />
<rect x="397.55" y="731.14" width="11.96" height="22.86" fill="#a07c2f" fill-opacity="0.680" rx="2" />
<rect x="451.90" y="708.29" width="11.96" height="45.71" fill="#a07c2f" fill-opacity="0.680" rx="2" />
<rect x="506.25" y="731.14" width="11.96" height="22.86" fill="#a07c2f" fill-opacity="0.680" rx="2" />
<rect x="560.61" y="731.14" width="11.96" height="22.86" fill="#a07c2f" fill-opacity="0.680" rx="2" />
<rect x="614.96" y="708.29" width="11.96" height="45.71" fill="#a07c2f" fill-opacity="0.680" rx="2" />
<rect x="669.31" y="708.29" width="11.96" height="45.71" fill="#a07c2f" fill-opacity="0.680" rx="2" />
<rect x="723.67" y="662.57" width="11.96" height="91.43" fill="#a07c2f" fill-opacity="0.680" rx="2" />
<rect x="778.02" y="639.71" width="11.96" height="114.29" fill="#a07c2f" fill-opacity="0.680" rx="2" />
<rect x="832.37" y="685.43" width="11.96" height="68.57" fill="#a07c2f" fill-opacity="0.680" rx="2" />
<rect x="886.72" y="662.57" width="11.96" height="91.43" fill="#a07c2f" fill-opacity="0.680" rx="2" />
<rect x="941.08" y="662.57" width="11.96" height="91.43" fill="#a07c2f" fill-opacity="0.680" rx="2" />
<rect x="995.43" y="731.14" width="11.96" height="22.86" fill="#a07c2f" fill-opacity="0.680" rx="2" />
<rect x="291.83" y="731.14" width="11.96" height="22.86" fill="#b64940" fill-opacity="0.680" rx="2" />
<rect x="454.89" y="708.29" width="11.96" height="45.71" fill="#b64940" fill-opacity="0.680" rx="2" />
<rect x="563.60" y="731.14" width="11.96" height="22.86" fill="#b64940" fill-opacity="0.680" rx="2" />
<rect x="617.95" y="731.14" width="11.96" height="22.86" fill="#b64940" fill-opacity="0.680" rx="2" />
<rect x="672.30" y="731.14" width="11.96" height="22.86" fill="#b64940" fill-opacity="0.680" rx="2" />
<rect x="726.66" y="685.43" width="11.96" height="68.57" fill="#b64940" fill-opacity="0.680" rx="2" />
<rect x="781.01" y="616.86" width="11.96" height="137.14" fill="#b64940" fill-opacity="0.680" rx="2" />
<rect x="835.36" y="662.57" width="11.96" height="91.43" fill="#b64940" fill-opacity="0.680" rx="2" />
<rect x="889.71" y="594.00" width="11.96" height="160.00" fill="#b64940" fill-opacity="0.680" rx="2" />
<rect x="944.07" y="708.29" width="11.96" height="45.71" fill="#b64940" fill-opacity="0.680" rx="2" />
<rect x="998.42" y="731.14" width="11.96" height="22.86" fill="#b64940" fill-opacity="0.680" rx="2" />
<line x1="773.70" y1="594.00" x2="773.70" y2="754.00" stroke="#2f7d5b" stroke-width="2.00" stroke-dasharray="6 4" />
<line x1="753.54" y1="594.00" x2="753.54" y2="754.00" stroke="#a07c2f" stroke-width="2.00" stroke-dasharray="6 4" />
<line x1="787.31" y1="594.00" x2="787.31" y2="754.00" stroke="#b64940" stroke-width="2.00" stroke-dasharray="6 4" />
<text class="paneltitle" x="116.00" y="586.00" text-anchor="start">Stage 3 sparse</text>
<text class="small" x="1040.00" y="586.00" text-anchor="end">Good 44  Neutral 31  Bad 29</text>
<text class="small" x="116.00" y="608.00" text-anchor="start">Good mean 35.4  Neutral mean 34.6  Bad mean 36.0</text>
<text class="label" x="560.00" y="848.00" text-anchor="middle">score_sum for the best trial of each stage</text>
</svg>
