<svg xmlns="http://www.w3.org/2000/svg" width="1080" height="900" viewBox="0 0 1080 900" role="img" aria-labelledby="title desc">
<title id="title">Optuna objective histograms by search stage</title>
<desc id="desc">Optuna objective histograms by search stage</desc>
<style>
.bg { fill: #fbfaf5; }
.panel { fill: #ffffff; stroke: #d8d4c8; stroke-width: 1; }
.axis { stroke: #706b60; stroke-width: 1; }
.grid { stroke: #ebe6d9; stroke-width: 1; }
.series { stroke-width: 2.5; }
.best { stroke: #b2382f; stroke-width: 2; stroke-dasharray: 6 4; }
.mean { stroke: #7a6d2c; stroke-width: 2; stroke-dasharray: 4 3; }
.title { font: 700 22px sans-serif; fill: #1d2b24; }
.subtitle { font: 500 13px sans-serif; fill: #59564f; }
.paneltitle { font: 700 14px sans-serif; fill: #1f2f28; }
.label { font: 12px sans-serif; fill: #4e4a43; }
.small { font: 11px sans-serif; fill: #6a665f; }
.legend { font: 12px sans-serif; fill: #2f3b35; }
</style>
<rect class="bg" x="0" y="0" width="1080" height="900" />
<text class="title" x="72.00" y="34.00" text-anchor="start">Optuna objective distributions by stage</text>
<text class="subtitle" x="72.00" y="54.00" text-anchor="start">Completed-trial histograms for auc_good_vs_bad. Mean and best are marked for each stage.</text>
<rect class="panel" x="72" y="64" width="976" height="220" rx="10" />
<line class="grid" x1="128.00" y1="248.00" x2="1028.00" y2="248.00" />
<text class="small" x="120.00" y="252.00" text-anchor="end">0</text>
<line class="grid" x1="128.00" y1="210.09" x2="1028.00" y2="210.09" />
<text class="small" x="120.00" y="214.09" text-anchor="end">50</text>
<line class="grid" x1="128.00" y1="172.17" x2="1028.00" y2="172.17" />
<text class="small" x="120.00" y="176.17" text-anchor="end">100</text>
<line class="grid" x1="128.00" y1="134.26" x2="1028.00" y2="134.26" />
<text class="small" x="120.00" y="138.26" text-anchor="end">150</text>
<line class="grid" x1="128.00" y1="96.34" x2="1028.00" y2="96.34" />
<text class="small" x="120.00" y="100.34" text-anchor="end">200</text>
<line class="grid" x1="128.00" y1="58.43" x2="1028.00" y2="58.43" />
<text class="small" x="120.00" y="62.43" text-anchor="end">250</text>
<line class="axis" x1="40.69" y1="248.00" x2="40.69" y2="254.00" />
<text class="small" x="40.69" y="270.00" text-anchor="middle">0.45</text>
<line class="axis" x1="194.56" y1="248.00" x2="194.56" y2="254.00" />
<text class="small" x="194.56" y="270.00" text-anchor="middle">0.50</text>
<line class="axis" x1="348.42" y1="248.00" x2="348.42" y2="254.00" />
<text class="small" x="348.42" y="270.00" text-anchor="middle">0.55</text>
<line class="axis" x1="502.28" y1="248.00" x2="502.28" y2="254.00" />
<text class="small" x="502.28" y="270.00" text-anchor="middle">0.60</text>
<line class="axis" x1="656.15" y1="248.00" x2="656.15" y2="254.00" />
<text class="small" x="656.15" y="270.00" text-anchor="middle">0.65</text>
<line class="axis" x1="810.01" y1="248.00" x2="810.01" y2="254.00" />
<text class="small" x="810.01" y="270.00" text-anchor="middle">0.70</text>
<line class="axis" x1="963.88" y1="248.00" x2="963.88" y2="254.00" />
<text class="small" x="963.88" y="270.00" text-anchor="middle">0.75</text>
<line class="axis" x1="1117.74" y1="248.00" x2="1117.74" y2="254.00" />
<text class="small" x="1117.74" y="270.00" text-anchor="middle">0.80</text>
<line class="axis" x1="128.00" y1="88.00" x2="128.00" y2="248.00" />
<line class="axis" x1="128.00" y1="248.00" x2="1028.00" y2="248.00" />
<rect x="129.50" y="244.97" width="30.33" height="3.03" fill="#355c7d" fill-opacity="0.720" rx="2" />
<rect x="162.83" y="237.38" width="30.33" height="10.62" fill="#355c7d" fill-opacity="0.720" rx="2" />
<rect x="196.17" y="244.97" width="30.33" height="3.03" fill="#355c7d" fill-opacity="0.720" rx="2" />
<rect x="229.50" y="235.11" width="30.33" height="12.89" fill="#355c7d" fill-opacity="0.720" rx="2" />
<rect x="262.83" y="228.28" width="30.33" height="19.72" fill="#355c7d" fill-opacity="0.720" rx="2" />
<rect x="296.17" y="212.36" width="30.33" height="35.64" fill="#355c7d" fill-opacity="0.720" rx="2" />
<rect x="329.50" y="193.40" width="30.33" height="54.60" fill="#355c7d" fill-opacity="0.720" rx="2" />
<rect x="362.83" y="113.02" width="30.33" height="134.98" fill="#355c7d" fill-opacity="0.720" rx="2" />
<rect x="396.17" y="88.00" width="30.33" height="160.00" fill="#355c7d" fill-opacity="0.720" rx="2" />
<rect x="429.50" y="137.29" width="30.33" height="110.71" fill="#355c7d" fill-opacity="0.720" rx="2" />
<rect x="462.83" y="172.17" width="30.33" height="75.83" fill="#355c7d" fill-opacity="0.720" rx="2" />
<rect x="496.17" y="184.30" width="30.33" height="63.70" fill="#355c7d" fill-opacity="0.720" rx="2" />
<rect x="529.50" y="197.19" width="30.33" height="50.81" fill="#355c7d" fill-opacity="0.720" rx="2" />
<rect x="562.83" y="205.54" width="30.33" height="42.46" fill="#355c7d" fill-opacity="0.720" rx="2" />
<rect x="596.17" y="214.64" width="30.33" height="33.36" fill="#355c7d" fill-opacity="0.720" rx="2" />
<rect x="629.50" y="228.28" width="30.33" height="19.72" fill="#355c7d" fill-opacity="0.720" rx="2" />
<rect x="662.83" y="228.28" width="30.33" height="19.72" fill="#355c7d" fill-opacity="0.720" rx="2" />
<rect x="696.17" y="242.69" width="30.33" height="5.31" fill="#355c7d" fill-opacity="0.720" rx="2" />
<rect x="729.50" y="240.42" width="30.33" height="7.58" fill="#355c7d" fill-opacity="0.720" rx="2" />
<rect x="762.83" y="244.97" width="30.33" height="3.03" fill="#355c7d" fill-opacity="0.720" rx="2" />
<rect x="796.17" y="244.97" width="30.33" height="3.03" fill="#355c7d" fill-opacity="0.720" rx="2" />
<line class="mean" x1="448.15" y1="88.00" x2="448.15" y2="248.00" />
<line class="best" x1="817.66" y1="88.00" x2="817.66" y2="248.00" />
<text class="paneltitle" x="128.00" y="80.00" text-anchor="start">Stage 1 dense</text>
<text class="small" x="1028.00" y="80.00" text-anchor="end">complete 1147  pruned 2949  best 0.7025  mean 0.5824</text>
<rect class="panel" x="72" y="312" width="976" height="220" rx="10" />
<line class="grid" x1="128.00" y1="496.00" x2="1028.00" y2="496.00" />
<text class="small" x="120.00" y="500.00" text-anchor="end">0</text>
<line class="grid" x1="128.00" y1="449.62" x2="1028.00" y2="449.62" />
<text class="small" x="120.00" y="453.62" text-anchor="end">100</text>
<line class="grid" x1="128.00" y1="403.25" x2="1028.00" y2="403.25" />
<text class="small" x="120.00" y="407.25" text-anchor="end">200</text>
<line class="grid" x1="128.00" y1="356.87" x2="1028.00" y2="356.87" />
<text class="small" x="120.00" y="360.87" text-anchor="end">300</text>
<line class="grid" x1="128.00" y1="310.49" x2="1028.00" y2="310.49" />
<text class="small" x="120.00" y="314.49" text-anchor="end">400</text>
<line class="axis" x1="40.69" y1="496.00" x2="40.69" y2="502.00" />
<text class="small" x="40.69" y="518.00" text-anchor="middle">0.45</text>
<line class="axis" x1="194.56" y1="496.00" x2="194.56" y2="502.00" />
<text class="small" x="194.56" y="518.00" text-anchor="middle">0.50</text>
<line class="axis" x1="348.42" y1="496.00" x2="348.42" y2="502.00" />
<text class="small" x="348.42" y="518.00" text-anchor="middle">0.55</text>
<line class="axis" x1="502.28" y1="496.00" x2="502.28" y2="502.00" />
<text class="small" x="502.28" y="518.00" text-anchor="middle">0.60</text>
<line class="axis" x1="656.15" y1="496.00" x2="656.15" y2="502.00" />
<text class="small" x="656.15" y="518.00" text-anchor="middle">0.65</text>
<line class="axis" x1="810.01" y1="496.00" x2="810.01" y2="502.00" />
<text class="small" x="810.01" y="518.00" text-anchor="middle">0.70</text>
<line class="axis" x1="963.88" y1="496.00" x2="963.88" y2="502.00" />
<text class="small" x="963.88" y="518.00" text-anchor="middle">0.75</text>
<line class="axis" x1="1117.74" y1="496.00" x2="1117.74" y2="502.00" />
<text class="small" x="1117.74" y="518.00" text-anchor="middle">0.80</text>
<line class="axis" x1="128.00" y1="336.00" x2="128.00" y2="496.00" />
<line class="axis" x1="128.00" y1="496.00" x2="1028.00" y2="496.00" />
<rect x="296.17" y="494.14" width="30.33" height="1.86" fill="#c06c3e" fill-opacity="0.720" rx="2" />
<rect x="329.50" y="494.14" width="30.33" height="1.86" fill="#c06c3e" fill-opacity="0.720" rx="2" />
<rect x="362.83" y="486.72" width="30.33" height="9.28" fill="#c06c3e" fill-opacity="0.720" rx="2" />
<rect x="396.17" y="492.29" width="30.33" height="3.71" fill="#c06c3e" fill-opacity="0.720" rx="2" />
<rect x="429.50" y="491.36" width="30.33" height="4.64" fill="#c06c3e" fill-opacity="0.720" rx="2" />
<rect x="462.83" y="485.33" width="30.33" height="10.67" fill="#c06c3e" fill-opacity="0.720" rx="2" />
<rect x="496.17" y="486.26" width="30.33" height="9.74" fill="#c06c3e" fill-opacity="0.720" rx="2" />
<rect x="529.50" y="487.19" width="30.33" height="8.81" fill="#c06c3e" fill-opacity="0.720" rx="2" />
<rect x="562.83" y="480.70" width="30.33" height="15.30" fill="#c06c3e" fill-opacity="0.720" rx="2" />
<rect x="596.17" y="466.78" width="30.33" height="29.22" fill="#c06c3e" fill-opacity="0.720" rx="2" />
<rect x="629.50" y="436.64" width="30.33" height="59.36" fill="#c06c3e" fill-opacity="0.720" rx="2" />
<rect x="662.83" y="416.23" width="30.33" height="79.77" fill="#c06c3e" fill-opacity="0.720" rx="2" />
<rect x="696.17" y="409.74" width="30.33" height="86.26" fill="#c06c3e" fill-opacity="0.720" rx="2" />
<rect x="729.50" y="392.12" width="30.33" height="103.88" fill="#c06c3e" fill-opacity="0.720" rx="2" />
<rect x="762.83" y="373.10" width="30.33" height="122.90" fill="#c06c3e" fill-opacity="0.720" rx="2" />
<rect x="796.17" y="345.28" width="30.33" height="150.72" fill="#c06c3e" fill-opacity="0.720" rx="2" />
<rect x="829.50" y="353.62" width="30.33" height="142.38" fill="#c06c3e" fill-opacity="0.720" rx="2" />
<rect x="862.83" y="336.00" width="30.33" height="160.00" fill="#c06c3e" fill-opacity="0.720" rx="2" />
<rect x="896.17" y="397.68" width="30.33" height="98.32" fill="#c06c3e" fill-opacity="0.720" rx="2" />
<rect x="929.50" y="414.38" width="30.33" height="81.62" fill="#c06c3e" fill-opacity="0.720" rx="2" />
<rect x="962.83" y="483.01" width="30.33" height="12.99" fill="#c06c3e" fill-opacity="0.720" rx="2" />
<line class="mean" x1="787.15" y1="336.00" x2="787.15" y2="496.00" />
<line class="best" x1="992.87" y1="336.00" x2="992.87" y2="496.00" />
<text class="paneltitle" x="128.00" y="328.00" text-anchor="start">Stage 2 refine</text>
<text class="small" x="1028.00" y="328.00" text-anchor="end">complete 2573  pruned 1523  best 0.7594  mean 0.6926</text>
<rect class="panel" x="72" y="560" width="976" height="220" rx="10" />
<line class="grid" x1="128.00" y1="744.00" x2="1028.00" y2="744.00" />
<text class="small" x="120.00" y="748.00" text-anchor="end">0</text>
<line class="grid" x1="128.00" y1="707.00" x2="1028.00" y2="707.00" />
<text class="small" x="120.00" y="711.00" text-anchor="end">500</text>
<line class="grid" x1="128.00" y1="669.99" x2="1028.00" y2="669.99" />
<text class="small" x="120.00" y="673.99" text-anchor="end">1000</text>
<line class="grid" x1="128.00" y1="632.99" x2="1028.00" y2="632.99" />
<text class="small" x="120.00" y="636.99" text-anchor="end">1500</text>
<line class="grid" x1="128.00" y1="595.99" x2="1028.00" y2="595.99" />
<text class="small" x="120.00" y="599.99" text-anchor="end">2000</text>
<line class="grid" x1="128.00" y1="558.99" x2="1028.00" y2="558.99" />
<text class="small" x="120.00" y="562.99" text-anchor="end">2500</text>
<line class="axis" x1="40.69" y1="744.00" x2="40.69" y2="750.00" />
<text class="small" x="40.69" y="766.00" text-anchor="middle">0.45</text>
<line class="axis" x1="194.56" y1="744.00" x2="194.56" y2="750.00" />
<text class="small" x="194.56" y="766.00" text-anchor="middle">0.50</text>
<line class="axis" x1="348.42" y1="744.00" x2="348.42" y2="750.00" />
<text class="small" x="348.42" y="766.00" text-anchor="middle">0.55</text>
<line class="axis" x1="502.28" y1="744.00" x2="502.28" y2="750.00" />
<text class="small" x="502.28" y="766.00" text-anchor="middle">0.60</text>
<line class="axis" x1="656.15" y1="744.00" x2="656.15" y2="750.00" />
<text class="small" x="656.15" y="766.00" text-anchor="middle">0.65</text>
<line class="axis" x1="810.01" y1="744.00" x2="810.01" y2="750.00" />
<text class="small" x="810.01" y="766.00" text-anchor="middle">0.70</text>
<line class="axis" x1="963.88" y1="744.00" x2="963.88" y2="750.00" />
<text class="small" x="963.88" y="766.00" text-anchor="middle">0.75</text>
<line class="axis" x1="1117.74" y1="744.00" x2="1117.74" y2="750.00" />
<text class="small" x="1117.74" y="766.00" text-anchor="middle">0.80</text>
<line class="axis" x1="128.00" y1="584.00" x2="128.00" y2="744.00" />
<line class="axis" x1="128.00" y1="744.00" x2="1028.00" y2="744.00" />
<rect x="862.83" y="743.48" width="30.33" height="0.52" fill="#2f7d5b" fill-opacity="0.720" rx="2" />
<rect x="896.17" y="738.89" width="30.33" height="5.11" fill="#2f7d5b" fill-opacity="0.720" rx="2" />
<rect x="929.50" y="719.58" width="30.33" height="24.42" fill="#2f7d5b" fill-opacity="0.720" rx="2" />
<rect x="962.83" y="584.00" width="30.33" height="160.00" fill="#2f7d5b" fill-opacity="0.720" rx="2" />
<rect x="996.17" y="680.28" width="30.33" height="63.72" fill="#2f7d5b" fill-opacity="0.720" rx="2" />
<line class="mean" x1="982.69" y1="584.00" x2="982.69" y2="744.00" />
<line class="best" x1="1012.61" y1="584.00" x2="1012.61" y2="744.00" />
<text class="paneltitle" x="128.00" y="576.00" text-anchor="start">Stage 3 sparse</text>
<text class="small" x="1028.00" y="576.00" text-anchor="end">complete 3429  pruned 667  best 0.7658  mean 0.7561</text>
<text class="label" x="578.00" y="888.00" text-anchor="middle">auc_good_vs_bad</text>
</svg>
