<svg xmlns="http://www.w3.org/2000/svg" width="1160" height="760" viewBox="0 0 1160 760" role="img" aria-labelledby="title desc">
<title id="title">Stage-3 top-trial parameter distributions</title>
<desc id="desc">Stage-3 top-trial parameter distributions</desc>
<style>
.bg { fill: #fbfaf5; }
.panel { fill: #ffffff; stroke: #d8d4c8; stroke-width: 1; }
.axis { stroke: #706b60; stroke-width: 1; }
.grid { stroke: #ebe6d9; stroke-width: 1; }
.series { stroke-width: 2.5; }
.best { stroke: #b2382f; stroke-width: 2; stroke-dasharray: 6 4; }
.mean { stroke: #7a6d2c; stroke-width: 2; stroke-dasharray: 4 3; }
.title { font: 700 22px sans-serif; fill: #1d2b24; }
.subtitle { font: 500 13px sans-serif; fill: #59564f; }
.paneltitle { font: 700 14px sans-serif; fill: #1f2f28; }
.label { font: 12px sans-serif; fill: #4e4a43; }
.small { font: 11px sans-serif; fill: #6a665f; }
.legend { font: 12px sans-serif; fill: #2f3b35; }
</style>
<rect class="bg" x="0" y="0" width="1160" height="760" />
<text class="title" x="52.00" y="34.00" text-anchor="start">Stage-3 top-trial parameter concentrations</text>
<text class="subtitle" x="52.00" y="54.00" text-anchor="start">Histograms over the top 250 completed stage-3 trials. Red dashed line marks the best trial value.</text>
<rect class="panel" x="52" y="78" width="250" height="250" rx="10" />
<line class="grid" x1="94.00" y1="294.00" x2="286.00" y2="294.00" />
<text class="small" x="88.00" y="298.00" text-anchor="end">0</text>
<line class="grid" x1="94.00" y1="256.72" x2="286.00" y2="256.72" />
<text class="small" x="88.00" y="260.72" text-anchor="end">20</text>
<line class="grid" x1="94.00" y1="219.44" x2="286.00" y2="219.44" />
<text class="small" x="88.00" y="223.44" text-anchor="end">40</text>
<line class="grid" x1="94.00" y1="182.16" x2="286.00" y2="182.16" />
<text class="small" x="88.00" y="186.16" text-anchor="end">60</text>
<line class="grid" x1="94.00" y1="144.87" x2="286.00" y2="144.87" />
<text class="small" x="88.00" y="148.87" text-anchor="end">80</text>
<line class="grid" x1="94.00" y1="107.59" x2="286.00" y2="107.59" />
<text class="small" x="88.00" y="111.59" text-anchor="end">100</text>
<line class="grid" x1="94.00" y1="70.31" x2="286.00" y2="70.31" />
<text class="small" x="88.00" y="74.31" text-anchor="end">120</text>
<line class="axis" x1="94.00" y1="294.00" x2="94.00" y2="299.00" />
<text class="small" x="94.00" y="312.00" text-anchor="middle">0.4</text>
<line class="axis" x1="145.20" y1="294.00" x2="145.20" y2="299.00" />
<text class="small" x="145.20" y="312.00" text-anchor="middle">0.42</text>
<line class="axis" x1="196.40" y1="294.00" x2="196.40" y2="299.00" />
<text class="small" x="196.40" y="312.00" text-anchor="middle">0.44</text>
<line class="axis" x1="247.60" y1="294.00" x2="247.60" y2="299.00" />
<text class="small" x="247.60" y="312.00" text-anchor="middle">0.46</text>
<line class="axis" x1="298.80" y1="294.00" x2="298.80" y2="299.00" />
<text class="small" x="298.80" y="312.00" text-anchor="middle">0.48</text>
<line class="axis" x1="94.00" y1="102.00" x2="94.00" y2="294.00" />
<line class="axis" x1="94.00" y1="294.00" x2="286.00" y2="294.00" />
<rect x="95.00" y="204.52" width="14.00" height="89.48" fill="#2f7d5b" fill-opacity="0.720" rx="2" />
<rect x="127.00" y="102.00" width="14.00" height="192.00" fill="#2f7d5b" fill-opacity="0.720" rx="2" />
<rect x="159.00" y="159.79" width="14.00" height="134.21" fill="#2f7d5b" fill-opacity="0.720" rx="2" />
<rect x="191.00" y="256.72" width="14.00" height="37.28" fill="#2f7d5b" fill-opacity="0.720" rx="2" />
<rect x="223.00" y="284.68" width="14.00" height="9.32" fill="#2f7d5b" fill-opacity="0.720" rx="2" />
<rect x="255.00" y="290.27" width="14.00" height="3.73" fill="#2f7d5b" fill-opacity="0.720" rx="2" />
<line class="best" x1="126.00" y1="102.00" x2="126.00" y2="294.00" />
<text class="paneltitle" x="94.00" y="94.00" text-anchor="start">best_path</text>
<text class="small" x="286.00" y="94.00" text-anchor="end">best 0.41250000000000003</text>
<rect class="panel" x="320" y="78" width="250" height="250" rx="10" />
<line class="grid" x1="362.00" y1="294.00" x2="554.00" y2="294.00" />
<text class="small" x="356.00" y="298.00" text-anchor="end">0</text>
<line class="grid" x1="362.00" y1="258.44" x2="554.00" y2="258.44" />
<text class="small" x="356.00" y="262.44" text-anchor="end">20</text>
<line class="grid" x1="362.00" y1="222.89" x2="554.00" y2="222.89" />
<text class="small" x="356.00" y="226.89" text-anchor="end">40</text>
<line class="grid" x1="362.00" y1="187.33" x2="554.00" y2="187.33" />
<text class="small" x="356.00" y="191.33" text-anchor="end">60</text>
<line class="grid" x1="362.00" y1="151.78" x2="554.00" y2="151.78" />
<text class="small" x="356.00" y="155.78" text-anchor="end">80</text>
<line class="grid" x1="362.00" y1="116.22" x2="554.00" y2="116.22" />
<text class="small" x="356.00" y="120.22" text-anchor="end">100</text>
<line class="grid" x1="362.00" y1="80.67" x2="554.00" y2="80.67" />
<text class="small" x="356.00" y="84.67" text-anchor="end">120</text>
<line class="axis" x1="362.00" y1="294.00" x2="362.00" y2="299.00" />
<text class="small" x="362.00" y="312.00" text-anchor="middle">-0.3</text>
<line class="axis" x1="400.40" y1="294.00" x2="400.40" y2="299.00" />
<text class="small" x="400.40" y="312.00" text-anchor="middle">-0.29</text>
<line class="axis" x1="438.80" y1="294.00" x2="438.80" y2="299.00" />
<text class="small" x="438.80" y="312.00" text-anchor="middle">-0.28</text>
<line class="axis" x1="477.20" y1="294.00" x2="477.20" y2="299.00" />
<text class="small" x="477.20" y="312.00" text-anchor="middle">-0.27</text>
<line class="axis" x1="515.60" y1="294.00" x2="515.60" y2="299.00" />
<text class="small" x="515.60" y="312.00" text-anchor="middle">-0.26</text>
<line class="axis" x1="554.00" y1="294.00" x2="554.00" y2="299.00" />
<text class="small" x="554.00" y="312.00" text-anchor="middle">-0.25</text>
<line class="axis" x1="362.00" y1="102.00" x2="362.00" y2="294.00" />
<line class="axis" x1="362.00" y1="294.00" x2="554.00" y2="294.00" />
<rect x="363.00" y="157.11" width="14.00" height="136.89" fill="#2f7d5b" fill-opacity="0.720" rx="2" />
<rect x="411.00" y="102.00" width="14.00" height="192.00" fill="#2f7d5b" fill-opacity="0.720" rx="2" />
<rect x="459.00" y="187.33" width="14.00" height="106.67" fill="#2f7d5b" fill-opacity="0.720" rx="2" />
<rect x="507.00" y="285.11" width="14.00" height="8.89" fill="#2f7d5b" fill-opacity="0.720" rx="2" />
<line class="best" x1="410.00" y1="102.00" x2="410.00" y2="294.00" />
<text class="paneltitle" x="362.00" y="94.00" text-anchor="start">fragility</text>
<text class="small" x="554.00" y="94.00" text-anchor="end">best -0.2875</text>
<rect class="panel" x="588" y="78" width="250" height="250" rx="10" />
<line class="grid" x1="630.00" y1="294.00" x2="822.00" y2="294.00" />
<text class="small" x="624.00" y="298.00" text-anchor="end">0</text>
<line class="grid" x1="630.00" y1="240.96" x2="822.00" y2="240.96" />
<text class="small" x="624.00" y="244.96" text-anchor="end">50</text>
<line class="grid" x1="630.00" y1="187.92" x2="822.00" y2="187.92" />
<text class="small" x="624.00" y="191.92" text-anchor="end">100</text>
<line class="grid" x1="630.00" y1="134.88" x2="822.00" y2="134.88" />
<text class="small" x="624.00" y="138.88" text-anchor="end">150</text>
<line class="grid" x1="630.00" y1="81.85" x2="822.00" y2="81.85" />
<text class="small" x="624.00" y="85.85" text-anchor="end">200</text>
<line class="axis" x1="610.80" y1="294.00" x2="610.80" y2="299.00" />
<text class="small" x="610.80" y="312.00" text-anchor="middle">0.14</text>
<line class="axis" x1="649.20" y1="294.00" x2="649.20" y2="299.00" />
<text class="small" x="649.20" y="312.00" text-anchor="middle">0.16</text>
<line class="axis" x1="687.60" y1="294.00" x2="687.60" y2="299.00" />
<text class="small" x="687.60" y="312.00" text-anchor="middle">0.18</text>
<line class="axis" x1="726.00" y1="294.00" x2="726.00" y2="299.00" />
<text class="small" x="726.00" y="312.00" text-anchor="middle">0.2</text>
<line class="axis" x1="764.40" y1="294.00" x2="764.40" y2="299.00" />
<text class="small" x="764.40" y="312.00" text-anchor="middle">0.22</text>
<line class="axis" x1="802.80" y1="294.00" x2="802.80" y2="299.00" />
<text class="small" x="802.80" y="312.00" text-anchor="middle">0.24</text>
<line class="axis" x1="841.20" y1="294.00" x2="841.20" y2="299.00" />
<text class="small" x="841.20" y="312.00" text-anchor="middle">0.26</text>
<line class="axis" x1="630.00" y1="102.00" x2="630.00" y2="294.00" />
<line class="axis" x1="630.00" y1="294.00" x2="822.00" y2="294.00" />
<rect x="727.00" y="292.94" width="14.00" height="1.06" fill="#2f7d5b" fill-opacity="0.720" rx="2" />
<rect x="743.00" y="292.94" width="14.00" height="1.06" fill="#2f7d5b" fill-opacity="0.720" rx="2" />
<rect x="775.00" y="277.03" width="14.00" height="16.97" fill="#2f7d5b" fill-opacity="0.720" rx="2" />
<rect x="791.00" y="239.90" width="14.00" height="54.10" fill="#2f7d5b" fill-opacity="0.720" rx="2" />
<rect x="807.00" y="102.00" width="14.00" height="192.00" fill="#2f7d5b" fill-opacity="0.720" rx="2" />
<line class="best" x1="822.00" y1="102.00" x2="822.00" y2="294.00" />
<text class="paneltitle" x="630.00" y="94.00" text-anchor="start">edge synergy</text>
<text class="small" x="822.00" y="94.00" text-anchor="end">best 0.25</text>
<rect class="panel" x="856" y="78" width="250" height="250" rx="10" />
<line class="grid" x1="898.00" y1="294.00" x2="1090.00" y2="294.00" />
<text class="small" x="892.00" y="298.00" text-anchor="end">0</text>
<line class="grid" x1="898.00" y1="246.00" x2="1090.00" y2="246.00" />
<text class="small" x="892.00" y="250.00" text-anchor="end">20</text>
<line class="grid" x1="898.00" y1="198.00" x2="1090.00" y2="198.00" />
<text class="small" x="892.00" y="202.00" text-anchor="end">40</text>
<line class="grid" x1="898.00" y1="150.00" x2="1090.00" y2="150.00" />
<text class="small" x="892.00" y="154.00" text-anchor="end">60</text>
<line class="grid" x1="898.00" y1="102.00" x2="1090.00" y2="102.00" />
<text class="small" x="892.00" y="106.00" text-anchor="end">80</text>
<line class="axis" x1="898.00" y1="294.00" x2="898.00" y2="299.00" />
<text class="small" x="898.00" y="312.00" text-anchor="middle">0.05</text>
<line class="axis" x1="962.00" y1="294.00" x2="962.00" y2="299.00" />
<text class="small" x="962.00" y="312.00" text-anchor="middle">0.1</text>
<line class="axis" x1="1026.00" y1="294.00" x2="1026.00" y2="299.00" />
<text class="small" x="1026.00" y="312.00" text-anchor="middle">0.15</text>
<line class="axis" x1="1090.00" y1="294.00" x2="1090.00" y2="299.00" />
<text class="small" x="1090.00" y="312.00" text-anchor="middle">0.2</text>
<line class="axis" x1="898.00" y1="102.00" x2="898.00" y2="294.00" />
<line class="axis" x1="898.00" y1="294.00" x2="1090.00" y2="294.00" />
<rect x="899.00" y="102.00" width="14.00" height="192.00" fill="#2f7d5b" fill-opacity="0.720" rx="2" />
<rect x="915.00" y="109.20" width="14.00" height="184.80" fill="#2f7d5b" fill-opacity="0.720" rx="2" />
<rect x="931.00" y="157.20" width="14.00" height="136.80" fill="#2f7d5b" fill-opacity="0.720" rx="2" />
<rect x="947.00" y="241.20" width="14.00" height="52.80" fill="#2f7d5b" fill-opacity="0.720" rx="2" />
<rect x="963.00" y="260.40" width="14.00" height="33.60" fill="#2f7d5b" fill-opacity="0.720" rx="2" />
<line class="best" x1="914.00" y1="102.00" x2="914.00" y2="294.00" />
<text class="paneltitle" x="898.00" y="94.00" text-anchor="start">edge child_quality</text>
<text class="small" x="1090.00" y="94.00" text-anchor="end">best 0.0625</text>
<rect class="panel" x="52" y="350" width="250" height="250" rx="10" />
<line class="grid" x1="94.00" y1="566.00" x2="286.00" y2="566.00" />
<text class="small" x="88.00" y="570.00" text-anchor="end">0</text>
<line class="grid" x1="94.00" y1="496.94" x2="286.00" y2="496.94" />
<text class="small" x="88.00" y="500.94" text-anchor="end">50</text>
<line class="grid" x1="94.00" y1="427.87" x2="286.00" y2="427.87" />
<text class="small" x="88.00" y="431.87" text-anchor="end">100</text>
<line class="grid" x1="94.00" y1="358.81" x2="286.00" y2="358.81" />
<text class="small" x="88.00" y="362.81" text-anchor="end">150</text>
<line class="axis" x1="94.00" y1="566.00" x2="94.00" y2="571.00" />
<text class="small" x="94.00" y="584.00" text-anchor="middle">1.5</text>
<line class="axis" x1="132.40" y1="566.00" x2="132.40" y2="571.00" />
<text class="small" x="132.40" y="584.00" text-anchor="middle">1.6</text>
<line class="axis" x1="170.80" y1="566.00" x2="170.80" y2="571.00" />
<text class="small" x="170.80" y="584.00" text-anchor="middle">1.7</text>
<line class="axis" x1="209.20" y1="566.00" x2="209.20" y2="571.00" />
<text class="small" x="209.20" y="584.00" text-anchor="middle">1.8</text>
<line class="axis" x1="247.60" y1="566.00" x2="247.60" y2="571.00" />
<text class="small" x="247.60" y="584.00" text-anchor="middle">1.9</text>
<line class="axis" x1="286.00" y1="566.00" x2="286.00" y2="571.00" />
<text class="small" x="286.00" y="584.00" text-anchor="middle">2</text>
<line class="axis" x1="94.00" y1="374.00" x2="94.00" y2="566.00" />
<line class="axis" x1="94.00" y1="566.00" x2="286.00" y2="566.00" />
<rect x="159.00" y="564.62" width="14.00" height="1.38" fill="#2f7d5b" fill-opacity="0.720" rx="2" />
<rect x="191.00" y="560.47" width="14.00" height="5.53" fill="#2f7d5b" fill-opacity="0.720" rx="2" />
<rect x="207.00" y="552.19" width="14.00" height="13.81" fill="#2f7d5b" fill-opacity="0.720" rx="2" />
<rect x="239.00" y="523.18" width="14.00" height="42.82" fill="#2f7d5b" fill-opacity="0.720" rx="2" />
<rect x="255.00" y="476.22" width="14.00" height="89.78" fill="#2f7d5b" fill-opacity="0.720" rx="2" />
<rect x="271.00" y="374.00" width="14.00" height="192.00" fill="#2f7d5b" fill-opacity="0.720" rx="2" />
<line class="best" x1="286.00" y1="374.00" x2="286.00" y2="566.00" />
<text class="paneltitle" x="94.00" y="366.00" text-anchor="start">method_rigor</text>
<text class="small" x="286.00" y="366.00" text-anchor="end">best 2.0</text>
<rect class="panel" x="320" y="350" width="250" height="250" rx="10" />
<line class="grid" x1="362.00" y1="566.00" x2="554.00" y2="566.00" />
<text class="small" x="356.00" y="570.00" text-anchor="end">0</text>
<line class="grid" x1="362.00" y1="514.11" x2="554.00" y2="514.11" />
<text class="small" x="356.00" y="518.11" text-anchor="end">50</text>
<line class="grid" x1="362.00" y1="462.22" x2="554.00" y2="462.22" />
<text class="small" x="356.00" y="466.22" text-anchor="end">100</text>
<line class="grid" x1="362.00" y1="410.32" x2="554.00" y2="410.32" />
<text class="small" x="356.00" y="414.32" text-anchor="end">150</text>
<line class="grid" x1="362.00" y1="358.43" x2="554.00" y2="358.43" />
<text class="small" x="356.00" y="362.43" text-anchor="end">200</text>
<line class="axis" x1="349.20" y1="566.00" x2="349.20" y2="571.00" />
<text class="small" x="349.20" y="584.00" text-anchor="middle">1.2</text>
<line class="axis" x1="400.40" y1="566.00" x2="400.40" y2="571.00" />
<text class="small" x="400.40" y="584.00" text-anchor="middle">1.4</text>
<line class="axis" x1="451.60" y1="566.00" x2="451.60" y2="571.00" />
<text class="small" x="451.60" y="584.00" text-anchor="middle">1.6</text>
<line class="axis" x1="502.80" y1="566.00" x2="502.80" y2="571.00" />
<text class="small" x="502.80" y="584.00" text-anchor="middle">1.8</text>
<line class="axis" x1="554.00" y1="566.00" x2="554.00" y2="571.00" />
<text class="small" x="554.00" y="584.00" text-anchor="middle">2</text>
<line class="axis" x1="362.00" y1="374.00" x2="362.00" y2="566.00" />
<line class="axis" x1="362.00" y1="566.00" x2="554.00" y2="566.00" />
<rect x="459.00" y="563.92" width="14.00" height="2.08" fill="#2f7d5b" fill-opacity="0.720" rx="2" />
<rect x="475.00" y="562.89" width="14.00" height="3.11" fill="#2f7d5b" fill-opacity="0.720" rx="2" />
<rect x="491.00" y="558.74" width="14.00" height="7.26" fill="#2f7d5b" fill-opacity="0.720" rx="2" />
<rect x="507.00" y="549.39" width="14.00" height="16.61" fill="#2f7d5b" fill-opacity="0.720" rx="2" />
<rect x="523.00" y="527.60" width="14.00" height="38.40" fill="#2f7d5b" fill-opacity="0.720" rx="2" />
<rect x="539.00" y="374.00" width="14.00" height="192.00" fill="#2f7d5b" fill-opacity="0.720" rx="2" />
<line class="best" x1="538.00" y1="374.00" x2="538.00" y2="566.00" />
<text class="paneltitle" x="362.00" y="366.00" text-anchor="start">reproducibility</text>
<text class="small" x="554.00" y="366.00" text-anchor="end">best 1.9375</text>
<rect class="panel" x="588" y="350" width="250" height="250" rx="10" />
<line class="grid" x1="630.00" y1="566.00" x2="822.00" y2="566.00" />
<text class="small" x="624.00" y="570.00" text-anchor="end">0</text>
<line class="grid" x1="630.00" y1="509.53" x2="822.00" y2="509.53" />
<text class="small" x="624.00" y="513.53" text-anchor="end">20</text>
<line class="grid" x1="630.00" y1="453.06" x2="822.00" y2="453.06" />
<text class="small" x="624.00" y="457.06" text-anchor="end">40</text>
<line class="grid" x1="630.00" y1="396.59" x2="822.00" y2="396.59" />
<text class="small" x="624.00" y="400.59" text-anchor="end">60</text>
<line class="grid" x1="630.00" y1="340.12" x2="822.00" y2="340.12" />
<text class="small" x="624.00" y="344.12" text-anchor="end">80</text>
<line class="axis" x1="630.00" y1="566.00" x2="630.00" y2="571.00" />
<text class="small" x="630.00" y="584.00" text-anchor="middle">1.5</text>
<line class="axis" x1="668.40" y1="566.00" x2="668.40" y2="571.00" />
<text class="small" x="668.40" y="584.00" text-anchor="middle">1.6</text>
<line class="axis" x1="706.80" y1="566.00" x2="706.80" y2="571.00" />
<text class="small" x="706.80" y="584.00" text-anchor="middle">1.7</text>
<line class="axis" x1="745.20" y1="566.00" x2="745.20" y2="571.00" />
<text class="small" x="745.20" y="584.00" text-anchor="middle">1.8</text>
<line class="axis" x1="783.60" y1="566.00" x2="783.60" y2="571.00" />
<text class="small" x="783.60" y="584.00" text-anchor="middle">1.9</text>
<line class="axis" x1="822.00" y1="566.00" x2="822.00" y2="571.00" />
<text class="small" x="822.00" y="584.00" text-anchor="middle">2</text>
<line class="axis" x1="630.00" y1="374.00" x2="630.00" y2="566.00" />
<line class="axis" x1="630.00" y1="566.00" x2="822.00" y2="566.00" />
<rect x="631.00" y="560.35" width="14.00" height="5.65" fill="#2f7d5b" fill-opacity="0.720" rx="2" />
<rect x="679.00" y="551.88" width="14.00" height="14.12" fill="#2f7d5b" fill-opacity="0.720" rx="2" />
<rect x="695.00" y="498.24" width="14.00" height="67.76" fill="#2f7d5b" fill-opacity="0.720" rx="2" />
<rect x="727.00" y="501.06" width="14.00" height="64.94" fill="#2f7d5b" fill-opacity="0.720" rx="2" />
<rect x="743.00" y="478.47" width="14.00" height="87.53" fill="#2f7d5b" fill-opacity="0.720" rx="2" />
<rect x="775.00" y="444.59" width="14.00" height="121.41" fill="#2f7d5b" fill-opacity="0.720" rx="2" />
<rect x="791.00" y="413.53" width="14.00" height="152.47" fill="#2f7d5b" fill-opacity="0.720" rx="2" />
<rect x="807.00" y="374.00" width="14.00" height="192.00" fill="#2f7d5b" fill-opacity="0.720" rx="2" />
<line class="best" x1="702.00" y1="374.00" x2="702.00" y2="566.00" />
<text class="paneltitle" x="630.00" y="366.00" text-anchor="start">citation_support</text>
<text class="small" x="822.00" y="366.00" text-anchor="end">best 1.6875</text>
<rect class="panel" x="856" y="350" width="250" height="250" rx="10" />
<line class="grid" x1="898.00" y1="566.00" x2="1090.00" y2="566.00" />
<text class="small" x="892.00" y="570.00" text-anchor="end">0</text>
<line class="grid" x1="898.00" y1="514.80" x2="1090.00" y2="514.80" />
<text class="small" x="892.00" y="518.80" text-anchor="end">20</text>
<line class="grid" x1="898.00" y1="463.60" x2="1090.00" y2="463.60" />
<text class="small" x="892.00" y="467.60" text-anchor="end">40</text>
<line class="grid" x1="898.00" y1="412.40" x2="1090.00" y2="412.40" />
<text class="small" x="892.00" y="416.40" text-anchor="end">60</text>
<line class="grid" x1="898.00" y1="361.20" x2="1090.00" y2="361.20" />
<text class="small" x="892.00" y="365.20" text-anchor="end">80</text>
<line class="axis" x1="878.80" y1="566.00" x2="878.80" y2="571.00" />
<text class="small" x="878.80" y="584.00" text-anchor="middle">0.64</text>
<line class="axis" x1="917.20" y1="566.00" x2="917.20" y2="571.00" />
<text class="small" x="917.20" y="584.00" text-anchor="middle">0.66</text>
<line class="axis" x1="955.60" y1="566.00" x2="955.60" y2="571.00" />
<text class="small" x="955.60" y="584.00" text-anchor="middle">0.68</text>
<line class="axis" x1="994.00" y1="566.00" x2="994.00" y2="571.00" />
<text class="small" x="994.00" y="584.00" text-anchor="middle">0.7</text>
<line class="axis" x1="1032.40" y1="566.00" x2="1032.40" y2="571.00" />
<text class="small" x="1032.40" y="584.00" text-anchor="middle">0.72</text>
<line class="axis" x1="1070.80" y1="566.00" x2="1070.80" y2="571.00" />
<text class="small" x="1070.80" y="584.00" text-anchor="middle">0.74</text>
<line class="axis" x1="1109.20" y1="566.00" x2="1109.20" y2="571.00" />
<text class="small" x="1109.20" y="584.00" text-anchor="middle">0.76</text>
<line class="axis" x1="898.00" y1="374.00" x2="898.00" y2="566.00" />
<line class="axis" x1="898.00" y1="566.00" x2="1090.00" y2="566.00" />
<rect x="899.00" y="563.44" width="14.00" height="2.56" fill="#2f7d5b" fill-opacity="0.720" rx="2" />
<rect x="915.00" y="558.32" width="14.00" height="7.68" fill="#2f7d5b" fill-opacity="0.720" rx="2" />
<rect x="947.00" y="550.64" width="14.00" height="15.36" fill="#2f7d5b" fill-opacity="0.720" rx="2" />
<rect x="963.00" y="540.40" width="14.00" height="25.60" fill="#2f7d5b" fill-opacity="0.720" rx="2" />
<rect x="995.00" y="517.36" width="14.00" height="48.64" fill="#2f7d5b" fill-opacity="0.720" rx="2" />
<rect x="1011.00" y="494.32" width="14.00" height="71.68" fill="#2f7d5b" fill-opacity="0.720" rx="2" />
<rect x="1043.00" y="455.92" width="14.00" height="110.08" fill="#2f7d5b" fill-opacity="0.720" rx="2" />
<rect x="1059.00" y="399.60" width="14.00" height="166.40" fill="#2f7d5b" fill-opacity="0.720" rx="2" />
<rect x="1075.00" y="374.00" width="14.00" height="192.00" fill="#2f7d5b" fill-opacity="0.720" rx="2" />
<line class="best" x1="994.00" y1="374.00" x2="994.00" y2="566.00" />
<text class="paneltitle" x="898.00" y="366.00" text-anchor="start">penalty eta</text>
<text class="small" x="1090.00" y="366.00" text-anchor="end">best 0.7000000000000001</text>
</svg>
